<svg id="Capa_1" data-name="Capa 1" xmlns="http://www.w3.org/2000/svg" viewBox="0 0 584.03 588"><defs><style>.cls-1{fill:#1f252d;}</style></defs><title>github_2</title><path class="cls-1" d="M0,0H0V588H198.92v-.13c8.3-.1,14.65-4.74,14.94-12.6.75-20.42.22-40.88.22-60.62-14.8.69-28.92,2.56-42.89,1.76-30.81-1.78-54.48-14.92-66.76-45.09C97.15,453.45,86.2,438.16,69.13,428a35.54,35.54,0,0,1-8.41-7.56c-3.19-3.72-2.6-7.54,2.44-8.56s10.63-1.76,15.64-.82c19.68,3.69,33.29,16,43.7,32.45,20.6,32.47,52.3,42.41,88,27.42,2-.84,4.52-2.87,4.9-4.72,2.87-14.37,8.24-27.48,19.07-39-12-2.23-23.19-3.87-34.12-6.4-31.49-7.29-59.77-20.4-80.46-46.43C103,353.14,95.26,328.28,91.71,301.82c-5.55-41.44-.58-80.23,27.88-113.34a8.9,8.9,0,0,0,1.58-7.18c-7.13-23.29-6-46.38,1-69.41,3.71-12.1,4.74-12.7,17.08-11,.76.1,1.49.29,2.24.42,24.74,4.09,46,16.07,67,28.93,2.82,1.73,7.12,2.8,10.22,2.05a313.73,313.73,0,0,1,150.19.05c2.91.7,6.79-.3,9.57-1.76,11.41-6,22.32-12.89,33.87-18.54,13.44-6.57,27.59-11.51,42.83-11.24,2.66,0,6.79,2.6,7.68,4.95,9.17,24.29,11.1,49,3.79,74.32-.78,2.7.38,6.54,1.84,9.2,7.2,13.23,17.27,25.44,21.83,39.47,13.91,42.77,8.84,85.12-10.09,125.32-17.34,36.84-49.51,55.51-87.59,65.14-12.87,3.25-26,5.23-39.92,7.95,18.19,19,21,42.17,20.71,66.45-.33,25-.24,50.09-.26,75.14,0,12.13,5.29,18.84,14.54,19.23,0,0,195.35,0,195.35,0L584,1.51Z" transform="translate(0)"/></svg>