<svg id="Capa_1" data-name="Capa 1" xmlns="http://www.w3.org/2000/svg" viewBox="0 0 455.73 455.73"><defs><style>.cls-1{fill:#1f252d;}</style></defs><title>linkedin</title><path class="cls-1" d="M0,0V455.73H455.73V0ZM139.94,376a10.5,10.5,0,0,1-10.51,10.51H84.71A10.51,10.51,0,0,1,74.2,376V185.18a10.52,10.52,0,0,1,10.51-10.51h44.72a10.51,10.51,0,0,1,10.51,10.51ZM107,145.49c-20.31.41-38.16-16.55-38.15-38.19a38.23,38.23,0,0,1,76.45.15C145.25,129.41,127,146,107,145.49ZM386.88,382.15a4.37,4.37,0,0,1-4.36,4.37l-57.15,0a4.36,4.36,0,0,1-4.36-4.36V264.33a36.89,36.89,0,0,0-37.31-36.88c-20.28.23-36.45,17.07-36.45,37.35V382.12a4.37,4.37,0,0,1-4.37,4.37l-57,0a4.36,4.36,0,0,1-4.36-4.36V179a4.37,4.37,0,0,1,4.37-4.36h55.79A4.36,4.36,0,0,1,246,179v23.42a4.45,4.45,0,0,1,.6.08A64.41,64.41,0,0,1,303,169.26h11.47a72.43,72.43,0,0,1,72.43,72.42V382.15Z"/></svg>